<svg version="1.1" id="Layer_1" xmlns="http://www.w3.org/2000/svg" xmlns:xlink="http://www.w3.org/1999/xlink" x="0px" y="0px"
	 width="100%" viewBox="0 0 386 58" enable-background="new 0 0 386 58" xml:space="preserve">
<path fill="#000000" opacity="1.000000" stroke="none" 
	d="
M1.000000,11.000000 
	C1.000000,7.668561 1.000000,4.337122 1.000000,1.004262 
	C129.591660,1.002841 258.183319,1.002841 386.887482,1.002841 
	C386.887482,20.246750 386.887482,39.494377 386.887482,58.871002 
	C258.333435,58.871002 129.666733,58.871002 1.000000,58.871002 
	C1.000000,56.312454 1.000000,53.647274 1.355274,50.184814 
	C5.399999,50.100555 9.089449,50.813583 12.626956,51.497246 
	C12.261953,45.423065 11.962167,40.434193 11.633259,34.960674 
	C15.944592,34.960674 19.904207,35.087322 23.852703,34.931767 
	C30.188913,34.682140 35.784477,28.843632 34.847645,22.712454 
	C33.801376,15.865059 31.650490,10.920933 23.435171,10.979155 
	C15.957107,11.032151 8.478415,10.996549 1.000000,11.000000 
M255.000412,15.883453 
	C255.000412,21.781006 255.000412,27.678556 255.000412,33.576107 
	C254.604965,33.723396 254.209534,33.870682 253.814087,34.017967 
	C249.248047,26.321590 242.159439,20.296837 238.821365,11.360336 
	C236.140274,11.360336 232.596344,11.360336 229.510193,11.360336 
	C229.510193,24.671759 229.510193,37.624702 229.510193,51.067780 
	C232.508133,50.865898 235.725983,50.649204 238.293976,50.476276 
	C235.814255,41.936939 237.602280,34.151501 236.874756,25.732063 
	C239.912308,29.393051 242.711182,32.123032 244.725937,35.343540 
	C247.842987,40.326019 253.469009,43.976479 253.414780,50.961891 
	C255.766617,50.961891 258.280334,51.199459 260.712372,50.856998 
	C261.848846,50.696964 263.745300,49.407784 263.739044,48.643108 
	C263.652802,38.082184 263.264404,27.524147 263.032440,16.963591 
	C262.990631,15.058434 263.319122,13.145144 263.466919,11.353214 
	C260.459167,11.353214 257.252533,11.353214 253.673508,11.353214 
	C254.217865,12.854925 254.598251,13.904290 255.000412,15.883453 
M50.216217,51.003998 
	C50.803913,50.618088 51.928875,50.182880 51.898670,49.853668 
	C51.450294,44.966995 50.848885,40.094372 50.268234,35.085270 
	C52.986279,35.085270 55.288830,35.085270 57.682384,35.085270 
	C59.138363,38.008884 60.590786,40.861912 61.986706,43.742325 
	C64.466805,48.859875 64.750702,49.086620 70.626274,50.334911 
	C71.272354,50.472179 71.983452,51.042397 72.504173,50.884254 
	C73.773445,50.498783 74.948608,49.803425 75.234192,49.669102 
	C71.856590,44.212715 68.882698,39.408493 65.831146,34.478825 
	C71.438705,32.958523 74.359436,28.456512 74.037247,21.848867 
	C73.796318,16.907524 71.023796,11.702378 66.580383,11.363884 
	C58.131496,10.720261 49.598763,11.177375 42.177464,11.177375 
	C43.140366,24.775433 44.315624,37.726250 41.300907,50.991863 
	C43.996956,50.991863 46.644081,50.991863 50.216217,51.003998 
M299.055420,42.994263 
	C293.442139,42.994263 287.828857,42.994263 282.222504,42.994263 
	C282.222504,39.781357 282.222504,37.041409 282.222504,34.435173 
	C286.830902,34.435173 291.189606,34.435173 295.773071,34.435173 
	C295.773071,31.309534 295.773071,27.736511 295.773071,23.752264 
	C291.421295,27.772732 286.700531,25.410582 282.235718,25.895773 
	C282.235718,23.423973 282.235718,21.352583 282.235718,19.444786 
	C289.167603,19.444786 295.849060,19.444786 302.670959,19.444786 
	C302.670959,16.199903 302.670959,12.672391 302.670959,9.648170 
	C292.555939,12.635036 282.258728,9.910892 272.986420,11.223609 
	C272.986420,14.066616 272.987457,16.598589 272.986206,19.130562 
	C272.981659,28.435705 273.481323,37.782974 272.710297,47.024216 
	C272.422180,50.477932 272.822601,50.975319 275.754822,50.959690 
	C285.070190,50.910030 294.385956,50.941315 303.497467,50.941315 
	C303.497467,48.227646 303.497467,44.826363 303.497467,40.623856 
	C302.179016,41.499950 301.070404,42.236626 299.055420,42.994263 
M323.670441,19.000071 
	C329.563354,19.000071 335.456268,19.000071 341.590729,19.000071 
	C341.590729,16.261713 341.590729,12.656218 341.590729,9.966328 
	C337.721954,10.333788 334.227448,10.871435 330.722229,10.954183 
	C324.182831,11.108557 317.637207,10.998524 311.551910,10.998524 
	C311.551910,24.655861 311.551910,37.580204 311.551910,51.208374 
	C321.506104,51.208374 331.519714,51.208374 341.717407,51.208374 
	C341.717407,48.292885 341.717407,44.743671 341.717407,41.493050 
	C334.585449,44.458485 327.379883,42.331493 320.213318,43.048679 
	C320.213318,39.789314 320.213318,37.045547 320.213318,33.795322 
	C325.139648,34.016064 329.831970,34.226318 334.747620,34.446579 
	C334.747620,31.316656 334.747620,27.745638 334.747620,25.127218 
	C329.910248,25.535641 325.189972,25.934174 319.297058,26.431713 
	C321.321869,23.469074 317.224457,19.563225 323.670441,19.000071 
M116.484428,35.757427 
	C116.322655,31.387968 116.977074,26.786472 115.815674,22.701199 
	C113.874023,15.871402 108.688782,11.439178 101.694366,10.132794 
	C95.304672,8.939355 89.315575,11.092277 85.453430,16.261759 
	C79.189537,24.645983 79.280853,33.909203 84.087585,43.003761 
	C87.343559,49.164204 95.554108,52.544220 102.865204,50.899826 
	C109.143738,49.487667 115.610825,43.577412 116.484428,35.757427 
M181.750107,10.000772 
	C179.048264,10.961672 176.160309,11.584102 173.679962,12.947864 
	C166.646927,16.814823 163.782593,28.394260 166.525192,38.260391 
	C170.164078,51.350800 186.255707,54.850334 194.598419,47.094601 
	C200.051529,42.025173 201.075455,35.671841 201.112640,28.581495 
	C201.160843,19.391085 192.894669,8.877372 181.750107,10.000772 
M359.376740,38.925911 
	C358.583160,35.631767 357.130066,32.335354 357.141388,29.043978 
	C357.161316,23.249046 360.435303,19.065992 366.416016,18.518690 
	C369.989349,18.191689 375.717987,19.640265 377.160797,22.177158 
	C380.542603,28.123501 380.816925,23.996109 382.084290,21.503925 
	C382.868317,19.962191 383.612732,18.400339 384.253632,17.094599 
	C381.636261,15.494967 379.565826,13.953129 377.271057,12.900319 
	C374.666595,11.705412 371.903381,10.285382 369.136505,10.110126 
	C353.261688,9.104594 347.232300,22.557440 349.302673,35.030857 
	C351.237579,46.687695 358.951416,52.369766 370.528992,50.788811 
	C375.203339,50.150513 379.561707,47.197979 384.240875,45.223923 
	C383.097260,42.338924 382.129211,39.619808 380.871307,37.042168 
	C380.695953,36.682838 378.553009,36.637909 378.233185,37.091160 
	C372.901093,44.647964 366.395111,45.544506 359.376740,38.925911 
M134.382782,38.907879 
	C133.589783,35.313671 132.231934,31.733429 132.142609,28.121815 
	C132.023087,23.289019 136.449554,19.116535 141.707764,18.039127 
	C145.372665,17.288191 150.966171,20.126945 153.129562,23.561001 
	C153.486481,24.127550 155.596619,24.405697 155.721817,24.176226 
	C157.006958,21.820721 158.049698,19.332972 159.152435,16.899021 
	C156.320419,15.362452 153.545090,14.140317 151.084045,12.458313 
	C146.836838,9.555559 142.522858,9.687339 137.671295,10.692296 
	C128.841354,12.521334 123.437454,21.091478 123.956566,32.473663 
	C124.624191,47.112244 138.146683,55.436848 150.961914,48.992256 
	C153.602722,47.664234 156.254623,46.358292 159.388596,44.799923 
	C157.783951,41.764526 156.151825,38.677143 154.056412,34.713409 
	C150.774887,44.057114 141.500366,45.712692 134.382782,38.907879 
M210.018112,26.511219 
	C210.018112,34.546120 210.018112,42.581017 210.018112,50.718651 
	C212.813416,50.718651 216.374725,50.718651 219.477875,50.718651 
	C219.477875,37.389034 219.477875,24.330496 219.477875,11.194521 
	C216.100632,11.194521 212.655640,11.194521 210.018341,11.194521 
	C210.018341,16.100729 210.018341,20.809042 210.018112,26.511219 
z"/>
<path fill="#F6F6F6" opacity="1.000000" stroke="none" 
	d="
M1.000000,11.333333 
	C8.478415,10.996549 15.957107,11.032151 23.435171,10.979155 
	C31.650490,10.920933 33.801376,15.865059 34.847645,22.712454 
	C35.784477,28.843632 30.188913,34.682140 23.852703,34.931767 
	C19.904207,35.087322 15.944592,34.960674 11.633259,34.960674 
	C11.962167,40.434193 12.261953,45.423065 12.626956,51.497246 
	C9.089449,50.813583 5.399999,50.100555 1.355274,49.693764 
	C1.000000,49.555553 1.000000,49.111111 1.403272,48.643585 
	C2.324481,47.212421 3.269924,45.810825 3.291418,44.395203 
	C3.437909,34.747112 3.448708,25.095167 3.300339,15.447586 
	C3.287613,14.620128 1.801612,13.815327 1.000000,13.000000 
	C1.000000,12.555555 1.000000,12.111111 1.000000,11.333333 
M11.954721,24.037487 
	C11.768545,24.932890 11.582369,25.828291 11.337009,27.008333 
	C15.080848,27.008333 18.712936,26.877607 22.330767,27.048595 
	C25.370443,27.192259 25.898302,25.158100 25.918743,23.029709 
	C25.939230,20.896503 25.448261,18.821600 22.400154,18.949350 
	C18.952198,19.093861 15.493525,18.982672 12.010555,18.982672 
	C12.010555,20.572216 12.010555,21.847200 11.954721,24.037487 
z"/>
<path fill="#000000" opacity="1.000000" stroke="none" 
	d="
M1.000000,13.468657 
	C1.801612,13.815327 3.287613,14.620128 3.300339,15.447586 
	C3.448708,25.095167 3.437909,34.747112 3.291418,44.395203 
	C3.269924,45.810825 2.324481,47.212421 1.403272,48.310253 
	C1.000000,36.645771 1.000000,25.291544 1.000000,13.468657 
z"/>
<path fill="#FAFAFA" opacity="1.000000" stroke="none" 
	d="
M254.989532,15.418554 
	C254.598251,13.904290 254.217865,12.854925 253.673508,11.353214 
	C257.252533,11.353214 260.459167,11.353214 263.466919,11.353214 
	C263.319122,13.145144 262.990631,15.058434 263.032440,16.963591 
	C263.264404,27.524147 263.652802,38.082184 263.739044,48.643108 
	C263.745300,49.407784 261.848846,50.696964 260.712372,50.856998 
	C258.280334,51.199459 255.766617,50.961891 253.414780,50.961891 
	C253.469009,43.976479 247.842987,40.326019 244.725937,35.343540 
	C242.711182,32.123032 239.912308,29.393051 236.874756,25.732063 
	C237.602280,34.151501 235.814255,41.936939 238.293976,50.476276 
	C235.725983,50.649204 232.508133,50.865898 229.510193,51.067780 
	C229.510193,37.624702 229.510193,24.671759 229.510193,11.360336 
	C232.596344,11.360336 236.140274,11.360336 238.821365,11.360336 
	C242.159439,20.296837 249.248047,26.321590 253.814087,34.017967 
	C254.209534,33.870682 254.604965,33.723396 255.000412,33.576107 
	C255.000412,27.678556 255.000412,21.781006 254.989532,15.418554 
z"/>
<path fill="#F9F9F9" opacity="1.000000" stroke="none" 
	d="
M49.753712,50.997932 
	C46.644081,50.991863 43.996956,50.991863 41.300907,50.991863 
	C44.315624,37.726250 43.140366,24.775433 42.177464,11.177375 
	C49.598763,11.177375 58.131496,10.720261 66.580383,11.363884 
	C71.023796,11.702378 73.796318,16.907524 74.037247,21.848867 
	C74.359436,28.456512 71.438705,32.958523 65.831146,34.478825 
	C68.882698,39.408493 71.856590,44.212715 75.234192,49.669102 
	C74.948608,49.803425 73.773445,50.498783 72.504173,50.884254 
	C71.983452,51.042397 71.272354,50.472179 70.626274,50.334911 
	C64.750702,49.086620 64.466805,48.859875 61.986706,43.742325 
	C60.590786,40.861912 59.138363,38.008884 57.682384,35.085270 
	C55.288830,35.085270 52.986279,35.085270 50.268234,35.085270 
	C50.848885,40.094372 51.450294,44.966995 51.898670,49.853668 
	C51.928875,50.182880 50.803913,50.618088 49.753712,50.997932 
M65.594696,21.847143 
	C61.436909,15.536396 55.277699,20.828905 50.610649,18.758762 
	C50.610649,21.746025 50.610649,24.280279 50.610649,27.026079 
	C53.726151,27.026079 57.028790,26.826096 60.296005,27.080698 
	C63.763699,27.350922 65.471413,25.848732 65.594696,21.847143 
z"/>
<path fill="#F8F8F8" opacity="1.000000" stroke="none" 
	d="
M299.508606,42.983780 
	C301.070404,42.236626 302.179016,41.499950 303.497467,40.623856 
	C303.497467,44.826363 303.497467,48.227646 303.497467,50.941315 
	C294.385956,50.941315 285.070190,50.910030 275.754822,50.959690 
	C272.822601,50.975319 272.422180,50.477932 272.710297,47.024216 
	C273.481323,37.782974 272.981659,28.435705 272.986206,19.130562 
	C272.987457,16.598589 272.986420,14.066616 272.986420,11.223609 
	C282.258728,9.910892 292.555939,12.635036 302.670959,9.648170 
	C302.670959,12.672391 302.670959,16.199903 302.670959,19.444786 
	C295.849060,19.444786 289.167603,19.444786 282.235718,19.444786 
	C282.235718,21.352583 282.235718,23.423973 282.235718,25.895773 
	C286.700531,25.410582 291.421295,27.772732 295.773071,23.752264 
	C295.773071,27.736511 295.773071,31.309534 295.773071,34.435173 
	C291.189606,34.435173 286.830902,34.435173 282.222504,34.435173 
	C282.222504,37.041409 282.222504,39.781357 282.222504,42.994263 
	C287.828857,42.994263 293.442139,42.994263 299.508606,42.983780 
z"/>
<path fill="#F8F8F8" opacity="1.000000" stroke="none" 
	d="
M323.190765,18.992596 
	C317.224457,19.563225 321.321869,23.469074 319.297058,26.431713 
	C325.189972,25.934174 329.910248,25.535641 334.747620,25.127218 
	C334.747620,27.745638 334.747620,31.316656 334.747620,34.446579 
	C329.831970,34.226318 325.139648,34.016064 320.213318,33.795322 
	C320.213318,37.045547 320.213318,39.789314 320.213318,43.048679 
	C327.379883,42.331493 334.585449,44.458485 341.717407,41.493050 
	C341.717407,44.743671 341.717407,48.292885 341.717407,51.208374 
	C331.519714,51.208374 321.506104,51.208374 311.551910,51.208374 
	C311.551910,37.580204 311.551910,24.655861 311.551910,10.998524 
	C317.637207,10.998524 324.182831,11.108557 330.722229,10.954183 
	C334.227448,10.871435 337.721954,10.333788 341.590729,9.966328 
	C341.590729,12.656218 341.590729,16.261713 341.590729,19.000071 
	C335.456268,19.000071 329.563354,19.000071 323.190765,18.992596 
z"/>
<path fill="#F8F8F8" opacity="1.000000" stroke="none" 
	d="
M116.263313,36.128471 
	C115.610825,43.577412 109.143738,49.487667 102.865204,50.899826 
	C95.554108,52.544220 87.343559,49.164204 84.087585,43.003761 
	C79.280853,33.909203 79.189537,24.645983 85.453430,16.261759 
	C89.315575,11.092277 95.304672,8.939355 101.694366,10.132794 
	C108.688782,11.439178 113.874023,15.871402 115.815674,22.701199 
	C116.977074,26.786472 116.322655,31.387968 116.263313,36.128471 
M90.005280,26.632330 
	C89.954185,26.950401 89.981735,27.309536 89.840294,27.580435 
	C87.388168,32.276821 90.924744,41.415577 95.583672,42.900249 
	C101.612411,44.821434 106.366188,41.647682 107.964943,34.047096 
	C108.501183,31.497746 108.384308,28.675747 107.939720,26.085875 
	C107.203964,21.799829 102.675598,17.666937 98.751984,18.084206 
	C94.318100,18.555742 90.682617,20.714146 90.005280,26.632330 
z"/>
<path fill="#F8F8F8" opacity="1.000000" stroke="none" 
	d="
M182.185303,10.000067 
	C192.894669,8.877372 201.160843,19.391085 201.112640,28.581495 
	C201.075455,35.671841 200.051529,42.025173 194.598419,47.094601 
	C186.255707,54.850334 170.164078,51.350800 166.525192,38.260391 
	C163.782593,28.394260 166.646927,16.814823 173.679962,12.947864 
	C176.160309,11.584102 179.048264,10.961672 182.185303,10.000067 
M181.330276,18.769205 
	C175.218857,20.642420 173.854340,23.010668 173.920792,31.629189 
	C173.970093,38.024181 177.286575,42.617393 182.192535,43.085312 
	C187.940613,43.633549 191.320099,40.843071 192.915421,34.231339 
	C195.096329,25.192696 190.424896,18.392567 181.330276,18.769205 
z"/>
<path fill="#F9F9F9" opacity="1.000000" stroke="none" 
	d="
M359.663147,39.196190 
	C366.395111,45.544506 372.901093,44.647964 378.233185,37.091160 
	C378.553009,36.637909 380.695953,36.682838 380.871307,37.042168 
	C382.129211,39.619808 383.097260,42.338924 384.240875,45.223923 
	C379.561707,47.197979 375.203339,50.150513 370.528992,50.788811 
	C358.951416,52.369766 351.237579,46.687695 349.302673,35.030857 
	C347.232300,22.557440 353.261688,9.104594 369.136505,10.110126 
	C371.903381,10.285382 374.666595,11.705412 377.271057,12.900319 
	C379.565826,13.953129 381.636261,15.494967 384.253632,17.094599 
	C383.612732,18.400339 382.868317,19.962191 382.084290,21.503925 
	C380.816925,23.996109 380.542603,28.123501 377.160797,22.177158 
	C375.717987,19.640265 369.989349,18.191689 366.416016,18.518690 
	C360.435303,19.065992 357.161316,23.249046 357.141388,29.043978 
	C357.130066,32.335354 358.583160,35.631767 359.663147,39.196190 
z"/>
<path fill="#F9F9F9" opacity="1.000000" stroke="none" 
	d="
M134.672714,39.174976 
	C141.500366,45.712692 150.774887,44.057114 154.056412,34.713409 
	C156.151825,38.677143 157.783951,41.764526 159.388596,44.799923 
	C156.254623,46.358292 153.602722,47.664234 150.961914,48.992256 
	C138.146683,55.436848 124.624191,47.112244 123.956566,32.473663 
	C123.437454,21.091478 128.841354,12.521334 137.671295,10.692296 
	C142.522858,9.687339 146.836838,9.555559 151.084045,12.458313 
	C153.545090,14.140317 156.320419,15.362452 159.152435,16.899021 
	C158.049698,19.332972 157.006958,21.820721 155.721817,24.176226 
	C155.596619,24.405697 153.486481,24.127550 153.129562,23.561001 
	C150.966171,20.126945 145.372665,17.288191 141.707764,18.039127 
	C136.449554,19.116535 132.023087,23.289019 132.142609,28.121815 
	C132.231934,31.733429 133.589783,35.313671 134.672714,39.174976 
z"/>
<path fill="#F9F9F9" opacity="1.000000" stroke="none" 
	d="
M210.018219,26.014286 
	C210.018341,20.809042 210.018341,16.100729 210.018341,11.194521 
	C212.655640,11.194521 216.100632,11.194521 219.477875,11.194521 
	C219.477875,24.330496 219.477875,37.389034 219.477875,50.718651 
	C216.374725,50.718651 212.813416,50.718651 210.018112,50.718651 
	C210.018112,42.581017 210.018112,34.546120 210.018219,26.014286 
z"/>
<path fill="#000000" opacity="1.000000" stroke="none" 
	d="
M11.982638,23.579836 
	C12.010555,21.847200 12.010555,20.572216 12.010555,18.982672 
	C15.493525,18.982672 18.952198,19.093861 22.400154,18.949350 
	C25.448261,18.821600 25.939230,20.896503 25.918743,23.029709 
	C25.898302,25.158100 25.370443,27.192259 22.330767,27.048595 
	C18.712936,26.877607 15.080848,27.008333 11.337009,27.008333 
	C11.582369,25.828291 11.768545,24.932890 11.982638,23.579836 
z"/>
<path fill="#000000" opacity="1.000000" stroke="none" 
	d="
M65.779686,22.218071 
	C65.471413,25.848732 63.763699,27.350922 60.296005,27.080698 
	C57.028790,26.826096 53.726151,27.026079 50.610649,27.026079 
	C50.610649,24.280279 50.610649,21.746025 50.610649,18.758762 
	C55.277699,20.828905 61.436909,15.536396 65.779686,22.218071 
z"/>
<path fill="#000000" opacity="1.000000" stroke="none" 
	d="
M89.988571,26.216606 
	C90.682617,20.714146 94.318100,18.555742 98.751984,18.084206 
	C102.675598,17.666937 107.203964,21.799829 107.939720,26.085875 
	C108.384308,28.675747 108.501183,31.497746 107.964943,34.047096 
	C106.366188,41.647682 101.612411,44.821434 95.583672,42.900249 
	C90.924744,41.415577 87.388168,32.276821 89.840294,27.580435 
	C89.981735,27.309536 89.954185,26.950401 89.988571,26.216606 
z"/>
<path fill="#000000" opacity="1.000000" stroke="none" 
	d="
M181.649673,18.533051 
	C190.424896,18.392567 195.096329,25.192696 192.915421,34.231339 
	C191.320099,40.843071 187.940613,43.633549 182.192535,43.085312 
	C177.286575,42.617393 173.970093,38.024181 173.920792,31.629189 
	C173.854340,23.010668 175.218857,20.642420 181.649673,18.533051 
z"/>
</svg>